<svg xmlns="http://www.w3.org/2000/svg" width="0" height="0" display="none">
	<symbol id="logo" viewBox="0 0 620.287 683.516">
		<title>Casa de Conspiratii logo</title>
		<path fill="#fff" d="M32.565,346.534c0,0-21.975,8.191-29.888,32.805c-6.422,19.972-0.436,55.145,8.928,70.5
			c20.818,34.136,55.556,26.109,55.556,26.109s-21.234-28.202-30.086-58.473C26.003,379.611,32.565,346.534,32.565,346.534z
			 M331.743,140.15l-68.218,96.839L68.433,325.369l204.67-77.997L331.743,140.15z M263.699,671.191
			c-9.4,3.101-27.307,1.957-49.607-6.992c-37.651-15.11-36.453-187.651-36.453-187.651s-18.855,129.362,11.737,185.377
			c17.218,31.529,51.299,22.491,75.299,10.616s21.879-15.771,21.879-15.771S273.098,668.09,263.699,671.191z M276.057,552.702
			c0,0,21.885-30.53,6.711-47.041c-31.981-34.797-32.026-57.733-32.026-57.733s-13.597,13.687-15.667,29.51
			c-2.07,15.823,22.132,52.696,31.155,65.269c3.882,5.41-8.26,23.977-2.128,37.414c12.58,27.567,37.126,51.062,37.126,51.062
			s14.036-20.072,4.074-44.784C295.34,561.686,276.057,552.702,276.057,552.702z M593.46,228.422
			C556.06,83.528,496.681-16.658,441.419,2.302c-45.963,15.769-59.786,98.022-41.629,208.613l121.66-8.778
			c33.202-1.49,50.144,77.682,26.713,90.428l-101.914,81.156c16.093,36.902,34.85,68.06,53.883,90.446
			c1.3,5.487,1.702,12.162,1.702,12.162s0.283,5.214,1.02,14.745c-1.921-1.895-3.868-3.886-5.852-5.98l0.193-0.491l-0.084-0.501
			l-0.949-0.438l-0.148,0.377c-10.594-11.316-21.915-25.416-32.997-43.053c-31.82-50.641-60.382-139.185-70.712-195.265
			c-34.24-185.873,9.586-232.255,11.779-234.44c-0.984,0.951-27.525,26.924-41.644,75.422
			c-9.383,32.228-15.399,86.152-8.112,131.701c13.404,83.774,30.44,166.475,90.97,248.853l28.475,14.497
			c0,0,41.67,19.852,54.322,21.728c5.088,0.755,21.231,4.637,33.74,3.064c9.232-1.161,21.053-3.996,30.031-11.023
			c10.481-8.202,17.451-20.664,17.451-20.664C628.913,428.874,621.427,336.775,593.46,228.422z M345.74,235.624
			c0,0-34.985,134.385-64.318,152.589c-29.332,18.203-181.817,76.488-181.817,76.488s-12.973,2.6-27.069-37.72
			c-14.097-40.319-27.439-99.279-27.439-99.279s-17.412,20.284,9.576,104.912c7.9,24.771,40.604,56.581,40.604,56.581
			s170.911-66.086,222.427-67.162c51.515-1.075,109.23,44.886,109.23,44.886s-27.634-35.552-53.76-108.388
			C356.17,311.118,345.74,235.624,345.74,235.624z M516.524,222.471l-97.275,9.52l107.352,26.749L516.524,222.471z"/>
	</symbol>

  <symbol id="facebook" viewBox="0 0 16 16">
    <title>Facebook icon</title>
    <path d="M5.899,3.102c0,0.402,0,2.202,0,2.202H4.298v2.693h1.601V16h3.287V7.996h2.206c0,0,0.207-1.291,0.306-2.704
	c-0.288,0-2.501,0-2.501,0s0-1.566,0-1.841s0.358-0.647,0.712-0.647s1.099,0,1.793,0c0-0.368,0-1.633,0-2.804
	C10.78,0,9.728,0,9.267,0C5.818,0.004,5.899,2.7,5.899,3.102z" fill="currentColor"/>
  </symbol>

  <symbol id="instagram" viewBox="0 0 16 16">
    <title>Instagram icon</title>
		<g fill="currentColor">
			<path d="M15.58,2.757c-0.204-0.526-0.476-0.971-0.921-1.416c-0.445-0.445-0.89-0.717-1.416-0.921
			c-0.507-0.198-1.094-0.334-1.941-0.371C10.448,0.012,10.176,0,8,0S5.552,0.006,4.699,0.049C3.845,0.087,3.264,0.223,2.757,0.42
			C2.232,0.624,1.787,0.896,1.342,1.342S0.624,2.232,0.42,2.757C0.223,3.264,0.087,3.852,0.049,4.699C0.012,5.552,0,5.824,0,8
			s0.006,2.448,0.049,3.301c0.037,0.853,0.173,1.434,0.371,1.941c0.204,0.526,0.476,0.971,0.921,1.416
			c0.445,0.445,0.89,0.717,1.416,0.921c0.507,0.198,1.094,0.334,1.941,0.371C5.552,15.988,5.824,16,8,16s2.448-0.006,3.301-0.049
			c0.853-0.037,1.434-0.173,1.941-0.371c0.526-0.204,0.971-0.476,1.416-0.921c0.445-0.445,0.717-0.89,0.921-1.416
			c0.198-0.507,0.334-1.094,0.371-1.941C15.988,10.448,16,10.176,16,8s-0.006-2.448-0.049-3.301
			C15.913,3.845,15.777,3.264,15.58,2.757z M14.51,11.233c-0.037,0.779-0.167,1.206-0.278,1.484c-0.142,0.371-0.321,0.643-0.6,0.921
			s-0.544,0.451-0.921,0.6c-0.284,0.111-0.705,0.241-1.484,0.278c-0.847,0.037-1.094,0.049-3.233,0.049S5.601,14.56,4.76,14.516
			c-0.779-0.037-1.206-0.167-1.484-0.278c-0.371-0.142-0.643-0.321-0.921-0.6s-0.451-0.544-0.6-0.921
			c-0.111-0.284-0.241-0.705-0.278-1.484C1.44,10.386,1.428,10.133,1.428,8s0.006-2.393,0.049-3.233
			c0.037-0.779,0.167-1.206,0.278-1.484c0.142-0.371,0.321-0.643,0.6-0.921S2.9,1.91,3.277,1.762C3.561,1.651,3.981,1.521,4.76,1.484
			c0.847-0.037,1.1-0.049,3.233-0.049s2.393,0.006,3.233,0.049c0.779,0.037,1.206,0.167,1.484,0.278
			c0.371,0.142,0.643,0.321,0.921,0.6s0.451,0.544,0.6,0.921c0.111,0.284,0.241,0.705,0.278,1.484C14.547,5.614,14.56,5.867,14.56,8
			S14.547,10.393,14.51,11.233z"/>
			<path d="M7.994,3.889C5.725,3.889,3.883,5.731,3.883,8s1.842,4.111,4.111,4.111S12.105,10.269,12.105,8
			S10.263,3.889,7.994,3.889z M7.994,10.671c-1.471,0-2.671-1.193-2.671-2.671c0-1.471,1.193-2.671,2.671-2.671S10.665,6.522,10.665,8
			C10.665,9.471,9.465,10.671,7.994,10.671z"/>
			<circle cx="12.266" cy="3.728" r="0.958"/>
		</g>
  </symbol>

  <symbol id="youtube" viewBox="0 0 16 16">
    <title>Youtube icon</title>
    <path d="M14.4,1.92C13.92,1.76,10.96,1.6,8,1.6S2.08,1.76,1.6,1.92C0.32,2.32,0,5.12,0,8s0.32,5.68,1.6,6.08
	C2.08,14.24,5.04,14.4,8,14.4s5.92-0.16,6.4-0.32c1.28-0.4,1.6-3.2,1.6-6.08S15.68,2.32,14.4,1.92L14.4,1.92z M6.4,11.6V4.4L11.2,8
	L6.4,11.6L6.4,11.6z" fill="currentColor"/>
  </symbol>

	<symbol id="hamburger-menu" viewBox="0 0 20 11">
		<title>Hamburger menu icon</title>>
		<g stroke-width="1" stroke="#fff">
			<line class="st0" x1="0" y1="0.5" x2="20" y2="0.5"/>
			<line class="st0" x1="0" y1="10.5" x2="20" y2="10.5"/>
			<line class="st0" x1="0" y1="5.5" x2="20" y2="5.5"/>
		</g>
	</symbol>
</svg>
